<svg width="53" height="47" viewBox="0 0 53 47" fill="none" xmlns="http://www.w3.org/2000/svg">
<path opacity="0.5" d="M30.7998 46.6V31C30.7998 22.4667 32.4665 15.4667 35.7998 9.99999C39.2665 4.53333 44.7998 1.2 52.3998 -1.90735e-06V8.19999C47.8665 8.73332 44.6665 10.4667 42.7998 13.4C40.9331 16.3333 39.9998 21 39.9998 27.4L33.9998 26.6H52.1998V46.6H30.7998ZM-0.000194311 46.6V31C-0.000194311 22.4667 1.66647 15.4667 4.99981 9.99999C8.46647 4.53333 13.9998 1.2 21.5998 -1.90735e-06V8.19999C17.0665 8.73332 13.8665 10.4667 11.9998 13.4C10.1331 16.3333 9.19981 21 9.19981 27.4L3.19981 26.6H21.3998V46.6H-0.000194311Z" fill="white"/>
</svg>
